Coordinates											
version=1											
nRows=101											
nColumns=12											
inDegrees=yes											
											
"Units are S.I. units (second, meters, Newtons, ...)"											
"If the header above contains a line with 'inDegrees', this indicates whether rotational values are in degrees (yes) or radians (no)."											
											
endheader											
time	clav_prot	clav_elev	scapula_abduction	scapula_elevation	scapula_upward_rot	scapula_winging	plane_elv	shoulder_elv	axial_rot	elbow_flexion	pro_sup
1.15	-17.41085095	5.81922728	-2.24820887	2.11271553	19.93703344	1.19474045	-7.16606759	11.81334389	34.22509646	0	34.32
1.16	-17.37368789	6.10063976	-2.17718474	2.28304841	20.10470535	1.13328184	-6.98808253	11.35408195	34.1961065	0	34.32
1.17	-17.58920098	6.74701909	-2.74690244	2.72640796	20.231283	1.12949129	-3.49826816	11.67595756	29.38439006	0	34.32
1.18	-17.7551811	7.17286018	-2.78051524	2.87413209	20.88074136	0.95079285	-3.19329188	10.92782682	29.42132878	0	34.32
1.19	-18.15587781	7.91724322	-3.20913911	3.1894888	21.77564423	0.73639031	-2.09362513	10.6808891	28.69223573	0	34.32
1.2	-18.3380995	8.33411607	-3.36201249	3.36506682	22.29129191	0.60751577	-2.0742457	10.59174554	27.81046649	0	34.32
1.21	-18.41097765	8.46830083	-3.30592196	3.37603586	22.64027428	0.50782904	-2.31923417	10.64342397	27.11427152	0	34.32
1.22	-18.39406719	8.51924261	-3.22891498	3.39143623	22.73593172	0.47719548	-2.31272155	10.69671419	27.11702468	0	34.32
1.23	-18.21233649	9.21670973	-2.42128135	3.65757232	23.81720364	0.13854944	-3.15972519	10.00275111	27.44925041	0	34.32
1.24	-18.20906051	9.3918674	-2.27521041	3.71654046	24.11575686	0.05106702	-2.88782242	9.57635149	27.5076633	0	34.32
1.25	-18.4309959	9.97691405	-2.39537452	3.96110153	24.87370694	-0.13023815	-0.89987545	9.31973739	26.48737722	0	34.32
1.26	-18.58283781	10.4891094	-2.4184695	4.17753871	25.54091462	-0.29113289	-0.47701091	9.03808417	25.64155704	0	34.32
1.27	-18.61066128	10.81822987	-2.27761299	4.31294325	26.00235098	-0.41044391	-1.0604951	8.6246482	27.45817452	0	34.32
1.28	-18.81364138	11.37297093	-2.45413406	4.57188188	26.62017811	-0.539158	-0.10552554	8.56748399	25.56525822	0	34.32
1.29	-18.78860238	11.62661843	-2.15618316	4.64987144	27.10565975	-0.67401823	-0.13033633	8.16879364	25.6861051	0	34.32
1.3	-18.80202071	12.00074208	-1.98538137	4.81503613	27.59554697	-0.7915135	0.73089102	7.57766908	26.46737749	0	34.32
1.31	-18.95778932	12.55586853	-2.03399538	5.06828899	28.26246825	-0.92933967	1.90435475	6.75616554	27.10642246	0	34.32
1.32	-19.36456923	12.97604157	-2.55799493	5.23028547	28.84025832	-1.03361475	5.25120499	6.61201386	23.22843471	0	34.32
1.33	-19.53060692	13.34160544	-2.79264724	5.4172099	29.17885238	-1.08420319	4.79261499	5.97065818	26.70252248	0	34.32
1.34	-19.97077708	13.7029736	-3.51457764	5.57861445	29.55498382	-1.13385418	8.38729516	6.12535601	21.9212398	0	34.32
1.35	-19.97924645	13.81864532	-3.5465661	5.65075708	29.61372224	-1.13560999	8.44262888	5.81283917	21.93353105	0	34.32
1.36	-20.35957625	14.41325352	-4.10263423	5.93777506	30.21759505	-1.22987807	11.10865138	5.58744832	19.82946774	0	34.32
1.37	-20.64758005	14.59093225	-4.65046559	6.0269317	30.33758165	-1.23571343	13.86173072	5.73998765	16.88969726	0	34.32
1.38	-20.75120303	14.84423567	-4.81623886	6.1618086	30.55093905	-1.26294391	15.64496582	5.78680136	14.99494942	0	34.32
1.39	-20.66814479	14.94120092	-4.63790946	6.21826953	30.64320536	-1.27766921	15.62100385	5.46889924	15.06362574	0	34.32
1.4	-20.83208695	15.42432558	-4.6423657	6.41498446	31.34625178	-1.42326959	17.12411905	5.14217927	13.61612751	0	34.32
1.41	-20.73931536	15.52897878	-4.39605434	6.46448683	31.50184524	-1.45514295	17.17597507	4.74229765	13.6944968	0	34.32
1.42	-20.74314916	15.56554944	-4.36788144	6.47708788	31.56898702	-1.47058884	17.18866136	4.75657931	13.70185556	0	34.32
1.43	-20.90238122	16.07514926	-4.33619723	6.68625058	32.31884907	-1.62032522	19.73006957	4.37619014	11.80849137	0	34.32
1.44	-20.94723013	16.27679385	-4.41446083	6.80067447	32.46992825	-1.63085028	21.10685506	4.13554402	11.60691604	0	34.32
1.45	-21.04908762	16.54444526	-4.55364971	6.93896487	32.72425092	-1.66226432	22.61927903	3.90585496	11.20595259	0	34.32
1.46	-21.04222241	16.55191477	-4.54083574	6.94395048	32.72906811	-1.66213665	22.62590453	3.88920167	11.21549554	0	34.32
1.47	-21.12521632	16.65227412	-4.53312011	6.95893159	32.99192683	-1.72847244	23.3159106	3.72609039	11.37673468	0	34.32
1.48	-21.16892872	16.69888406	-4.59457419	6.97861345	33.05051154	-1.73886523	24.20853279	3.78159478	10.98397185	0	34.32
1.49	-21.24998472	16.71283235	-4.64347839	6.95721904	33.1823033	-1.78032167	24.26324887	3.65542173	11.05028088	0	34.32
1.5	-21.31339238	16.74218146	-4.79455627	6.97761627	33.16930785	-1.77181191	24.98475641	3.59468496	10.54650566	0	34.32
1.51	-21.42689709	16.86370047	-5.06984785	7.05565968	33.18983679	-1.7573711	25.36395494	3.66129261	10.56478716	0	34.32
1.52	-21.43940958	16.85045905	-5.08823107	7.0459082	33.18704844	-1.75938	25.36104676	3.62398101	10.56868882	0	34.32
1.53	-21.55813438	16.7383345	-5.20194294	6.94629971	33.23636334	-1.80146871	25.81640668	3.46274841	10.34662372	0	34.32
1.54	-21.56810096	16.72858211	-5.24240104	6.94502837	33.20475352	-1.79349148	25.81126948	3.42009616	10.35175853	0	34.32
1.55	-21.74507603	16.63546114	-5.65456922	6.89653077	33.05303665	-1.76969682	26.46052707	3.4461917	10.01640553	0	34.32
1.56	-21.75105834	16.64019934	-5.69085328	6.90493814	33.02767863	-1.76073842	26.45882586	3.42008115	10.02275468	0	34.32
1.57	-21.71347855	16.77978873	-5.85282912	7.04395497	32.8604908	-1.67780773	27.03305806	3.55644556	9.9459298	0	34.32
1.58	-21.71226222	16.78650749	-5.85848486	7.0498019	32.85648228	-1.67508607	27.03135846	3.54701559	9.9505873	0	34.32
1.59	-21.63882754	16.85240414	-5.69373166	7.0870075	32.93254382	-1.68372928	27.51861781	3.61606987	9.4887753	0	34.32
1.6	-21.66415497	16.81784428	-5.69979621	7.05543111	32.95575797	-1.69907702	27.48557721	3.69721076	9.50121273	0	34.32
1.61	-21.87921904	16.56439849	-5.91142961	6.8469219	33.00027705	-1.77212904	27.58323544	3.97189377	8.52224258	0	34.32
1.62	-21.13111182	16.43941683	-4.62228022	6.85140301	32.7519399	-1.69260197	18.4403581	3.62920699	15.00588832	0	34.32
1.63	-21.12028713	16.40242313	-4.64389222	6.84036262	32.67617332	-1.67562777	18.64392544	3.68834235	14.89373056	0	34.32
1.64	-21.30876188	16.49216251	-4.98215553	6.87679266	32.76535586	-1.69078808	20.55751448	3.72030726	13.73951016	0	34.32
1.65	-21.32489222	16.57914436	-5.09450761	6.94619154	32.7338486	-1.66403305	21.60879308	3.76420561	13.31668997	0	34.32
1.66	-21.5413396	16.4918276	-5.40492382	6.85749381	32.78987756	-1.70518207	23.7167731	3.87157355	11.28300393	0	34.32
1.67	-21.63274188	16.52946895	-5.51202113	6.85818406	32.89420345	-1.73477568	24.47033077	3.85278651	10.59722067	0	34.32
1.68	-21.79525708	16.43137496	-5.74592277	6.77276267	32.91104938	-1.76499767	25.46153673	3.84430087	9.63246565	0	34.32
1.69	-21.85539215	16.38026167	-5.85060651	6.73671891	32.88564178	-1.76893365	26.25135808	3.86321175	8.90931554	0	34.32
1.7	-21.81770868	16.55165785	-5.85739578	6.85809803	32.91850946	-1.74547305	26.70755091	3.99242896	8.58813777	0	34.32
1.71	-21.82649462	16.47845696	-5.88483585	6.81694352	32.85371615	-1.73871534	26.87414452	4.06316915	8.60666334	0	34.32
1.72	-21.82661379	16.46812062	-5.88703042	6.81152462	32.84375101	-1.73771548	26.86795945	4.06800939	8.61364907	0	34.32
1.73	-21.64994418	16.38536524	-5.6179675	6.78973422	32.70668744	-1.70242472	26.81860362	4.22309513	8.526074	0	34.32
1.74	-21.56755363	16.45310296	-5.59340795	6.86584087	32.60231344	-1.6530847	26.58459477	4.4431599	8.46334041	0	34.32
1.75	-21.55872544	16.45405783	-5.60069447	6.87280162	32.57537441	-1.64374202	26.57068042	4.41874785	8.46462994	0	34.32
1.76	-21.4230736	16.37827415	-5.45770837	6.86425457	32.38712522	-1.59325959	26.78562538	4.54958532	7.80966156	0	34.32
1.77	-21.34562122	16.31679813	-5.3614119	6.84525668	32.28334742	-1.56940132	27.27982674	4.48263543	7.1876659	0	34.32
1.78	-21.2662746	16.28138488	-5.29331073	6.84935772	32.1613666	-1.53465435	27.95227727	4.42632073	6.6713112	0	34.32
1.79	-21.2462368	16.26195081	-5.34084692	6.85996818	32.04785479	-1.50088149	28.60658117	4.40273345	6.30914975	0	34.32
1.8	-21.17130949	16.36475488	-5.31544845	6.95325756	31.98541123	-1.45870418	29.08745386	4.30206411	6.30316255	0	34.32
1.81	-21.20393759	16.37885971	-5.43198386	6.97276422	31.93286297	-1.43918707	29.43162064	4.21907838	6.28670913	0	34.32
1.82	-21.31606464	16.29708647	-5.63078706	6.91461441	31.8909749	-1.44439534	29.76294205	4.17876598	5.99774117	0	34.32
1.83	-21.30747692	16.28916837	-5.62238923	6.9124164	31.87626928	-1.44053151	29.74817748	4.16386286	6.00370454	0	34.32
1.84	-21.43640257	16.01921787	-5.77413748	6.72393609	31.79026596	-1.46751121	29.96373917	4.19796481	5.54257408	0	34.32
1.85	-21.3936012	16.33855111	-5.77982065	6.93434041	31.9203714	-1.4471182	29.12674879	4.23160412	5.47351229	0	34.32
1.86	-21.37848095	16.32503661	-5.7813917	6.93486496	31.87493885	-1.43476701	29.09663692	4.18438505	5.47711165	0	34.32
1.87	-21.52548025	15.96071719	-6.04600522	6.70961862	31.62837016	-1.42766129	28.67494751	4.22266076	5.13031386	0	34.32
1.88	-20.71755073	15.66536388	-4.9456776	6.69429022	30.90178234	-1.23239583	17.45843809	4.37758737	8.31646436	0	34.32
1.89	-20.90075858	15.49759537	-5.31113317	6.58993256	30.76214857	-1.21757192	18.30755689	4.59532683	7.77450985	0	34.32
1.9	-20.90836506	15.44552661	-5.3051237	6.55394462	30.74900799	-1.22277218	18.2929325	4.57294682	7.78856063	0	34.32
1.91	-20.54889939	14.98060043	-4.57954821	6.29122269	30.47036907	-1.21588999	11.70693492	3.72051799	17.90313687	0	34.32
1.92	-20.54548992	14.93827409	-4.5716786	6.26635126	30.44208905	-1.21314684	11.71101164	3.68891524	17.90431903	0	34.32
1.93	-20.57467756	14.47342921	-4.73483555	6.02012334	29.98796107	-1.14065584	11.90788126	3.82889825	17.86484183	0	34.32
1.94	-20.85567068	14.12132151	-5.26523262	5.79774227	29.7432934	-1.11256802	15.9998386	4.26055932	13.55020633	0	34.32
1.95	-20.83260705	14.08595499	-5.26510493	5.78977341	29.6663421	-1.0924917	15.99643354	4.17458224	13.55774852	0	34.32
1.96	-20.82973058	13.69256791	-5.6837216	5.67436557	28.87281756	-0.88910701	18.36670365	4.59223524	11.65026605	0	34.32
1.97	-20.81384487	13.65277189	-5.71483239	5.66864346	28.77050802	-0.86069047	18.37062998	4.52843293	11.66035048	0	34.32
1.98	-20.70423859	13.02339011	-6.24003174	5.5144074	27.41931136	-0.49932154	21.51412218	5.63987947	9.31258063	0	34.32
1.99	-20.4818243	12.43004724	-6.12818128	5.27128583	26.61842201	-0.31369726	21.27541581	6.2620828	9.58873493	0	34.32
2	-20.4212197	11.79520181	-6.05252534	4.91641807	26.13138663	-0.22826774	20.89443821	6.74413241	9.76026066	0	34.32
2.01	-19.72791376	10.55055672	-5.13842804	4.34153932	24.80076618	0.05671498	15.13621453	6.89097542	13.10778086	0	34.32
2.02	-19.5746208	10.03886461	-5.03778961	4.10765989	24.21799134	0.19741032	14.76271256	7.0533317	15.40695472	0	34.32
2.03	-19.59671326	9.96771135	-5.0972024	4.07079714	24.14634269	0.21747305	14.76470342	7.01308697	15.41288591	0	34.32
2.04	-19.98436628	9.21254217	-6.12900181	3.71142759	23.2211701	0.500035	16.05172696	7.76206469	13.47348353	0	34.32
2.05	-20.00301671	8.50206876	-6.19316243	3.3025629	22.71899998	0.63248803	12.61310784	7.82375126	16.16141929	0	34.32
2.06	-20.15589311	8.10002796	-6.30630616	3.0003922	22.69433955	0.63815778	12.29268706	8.58993199	16.30535206	0	34.32
2.07	-19.71697181	6.55299023	-5.58171673	2.12786504	21.63353064	0.9376155	6.01005958	9.29518446	20.56521994	0	34.32
2.08	-19.74281047	6.12379958	-5.55387484	1.84256875	21.4846759	0.99601974	5.87384792	10.18534428	20.68287229	0	34.32
2.09	-19.60907704	5.47224967	-5.63591197	1.57316051	20.63084643	1.27282378	5.81147979	10.68576215	21.43327004	0	34.32
2.1	-19.6218604	5.46782826	-5.70940573	1.58806852	20.55491951	1.29811732	5.80942958	10.61468787	21.43334868	0	34.32
2.11	-20.1954658	5.30173737	-7.22377672	1.63479456	19.75191874	1.6040231	6.03417548	10.75285033	20.8042177	0	34.32
2.12	-20.36065711	5.37162707	-7.68937943	1.73074271	19.54497877	1.67762943	5.14431907	10.76092887	21.11910262	0	34.32
2.13	-20.33550668	5.34160197	-7.66307425	1.72138541	19.49854589	1.69184976	5.11105094	10.73562743	21.12302494	0	34.32
2.14	-19.92064367	4.75840092	-6.74783347	1.33026213	19.40067969	1.71830607	0.8772772	10.48377314	23.5264667	0	34.32
2.15	-19.68622358	4.76275066	-6.3348387	1.34871404	19.38915282	1.70062787	0.41734028	10.87572078	21.34839858	0	34.32
